<svg xmlns="http://www.w3.org/2000/svg" viewBox="0 0 172.06 155.38">
  <defs>
    <style>
      .cls-1 {
        fill: #2a2557;
      }

      .cls-2 {
        fill: #c78f48;
      }
    </style>
  </defs>
  <g id="Layer_2" data-name="Layer 2">
    <g id="Layer_1-2" data-name="Layer 1">
      <g>
        <path class="cls-1" d="M170.85,141.57c-1.15,0-1.92,1.39-2.54,2.31-4.43,6.67-11,9.09-18.57,9.09-4.43,0-8.52-1.77-10.11-6-1.76-4.73-3.46-9.84-3.5-14.79-.27-42.66-.2-85.32-.07-128,0-3.49-1-4.3-4.27-4.14-5.38.25-10.78.17-16.17,0-2.41-.07-3.35.7-3.37,3.16a55.49,55.49,0,0,1-.74,9.47c-2.42,12.92-9,20.7-24,20.35C75,32.73,62.48,33,49.94,33H46.41L46,34.62l2.35.44c2.81.48,5.7.62,8.43,1.36,5.34,1.45,6.57,4.43,4.08,9.38a27.79,27.79,0,0,1-2.93,4.7Q37,77.22,16.05,103.9h0l-.18.24-4.49,5.92.93.61c.38.26.76.52.92.61L18,105.65l16.83,27.63c2.68,4.87,5.34,9.68,8.16,14.38,2.33,3.91,6,6.52,10.74,6.56,13.86.12,27.72.06,41.58,0,.78,0,2.32-.31,2.33-1.2s-1.43-1.2-2.15-1.2c-6.2,0-10.62-2.69-13.42-8.24l-4.49-8.83.08,0-4-7.71q-7.05-13.9-14.13-27.79c-.52-1-3.46-6.86-4.07-7.93-3-6.06-6.06-12.12-9.18-18.13-.8-1.53-1-2.67.29-4.11,1.9-2.11,3.46-4.51,5.25-6.71,5.54-6.8,10.85-13.8,16.76-20.25,5.13-5.59,12-6.78,19-4.27,7.59,2.73,10.75,9,10.81,16.76.11,13.85,0,27.7,0,41.55a91.41,91.41,0,0,0,4,28.14C106.1,135.9,113,145,124.27,150.31c7.24,3.41,15,4.58,22.86,5,7.25.39,14.05-.78,19.56-5.79,2.13-1.93,4.23-4,5.35-6.92.18-.49-.67-1-1.19-1"/>
        <rect class="cls-2" x="143.96" y="32.55" width="21.32" height="4.52"/>
        <rect class="cls-2" x="11.37" y="148.49" width="21.32" height="4.52"/>
        <rect class="cls-1" y="0.62" width="105.87" height="3.88"/>
        <rect class="cls-1" y="0.62" width="3.88" height="152.39"/>
      </g>
    </g>
  </g>
</svg>
